<?xml version="1.0" standalone="no"?>
<!DOCTYPE svg PUBLIC "-//W3C//DTD SVG 20010904//EN"
 "http://www.w3.org/TR/2001/REC-SVG-20010904/DTD/svg10.dtd">
<svg version="1.0" xmlns="http://www.w3.org/2000/svg"
 width="500.000000pt" height="500.000000pt" viewBox="0 0 500.000000 500.000000"
 preserveAspectRatio="xMidYMid meet">

<g transform="translate(0.000000,500.000000) scale(0.100000,-0.100000)"
fill="#000000" stroke="none">
<path d="M2340 4390 c-317 -84 -530 -361 -530 -690 0 -224 100 -427 278 -564
195 -149 464 -186 695 -95 190 75 348 245 415 446 22 67 26 96 26 208 1 110
-3 142 -22 205 -72 228 -244 407 -460 478 -108 35 -293 41 -402 12z m250 -200
c0 -57 1 -60 28 -66 104 -25 179 -110 196 -222 l6 -43 -102 3 -103 3 -6 39
c-11 69 -79 99 -130 57 -19 -15 -24 -29 -24 -64 0 -60 19 -79 130 -132 50 -23
109 -57 133 -74 104 -77 123 -242 39 -338 -34 -38 -117 -83 -154 -83 -21 0
-23 -4 -23 -60 l0 -60 -50 0 -50 0 0 58 0 59 -54 12 c-97 22 -174 97 -195 191
-19 83 -23 80 88 80 l99 0 7 -37 c10 -57 49 -93 101 -93 34 0 47 5 63 26 24
30 27 70 9 110 -10 21 -38 39 -117 77 -123 57 -174 95 -202 148 -70 138 -1
292 150 336 l61 18 0 58 0 57 50 0 50 0 0 -60z"/>
<path d="M1449 3409 c-118 -78 -330 -218 -471 -311 l-258 -170 0 -1224 0
-1224 270 0 270 0 0 1024 0 1024 1260 1 1260 1 0 -1025 0 -1025 270 0 270 0 0
1224 0 1223 -472 311 -472 310 -24 -81 c-80 -280 -291 -496 -577 -593 -68 -23
-101 -28 -220 -31 -157 -5 -236 7 -351 53 -109 43 -201 103 -284 184 -122 119
-198 247 -238 399 l-18 71 -215 -141z"/>
<path d="M1440 2255 l0 -75 1080 0 1080 0 0 75 0 75 -1080 0 -1080 0 0 -75z"/>
<path d="M1440 1900 l0 -150 1080 0 1080 0 0 150 0 150 -1080 0 -1080 0 0
-150z"/>
<path d="M1440 1465 l0 -155 1080 0 1080 0 0 155 0 155 -1080 0 -1080 0 0
-155z"/>
<path d="M1440 1030 l0 -150 1080 0 1080 0 0 150 0 150 -1080 0 -1080 0 0
-150z"/>
</g>
</svg>
